<svg xmlns="http://www.w3.org/2000/svg" viewBox="0 0 1000 800" preserveAspectRatio="xMidYMid meet" aria-hidden="true">
  <defs>
    <clipPath id="pkOutline" clipPathUnits="userSpaceOnUse">
      <path d="M842.04,0 L885.60,27.48 L903.05,72.78 L1000.00,96.62 L943.07,146.17 L877.36,154.93 L787.94,140.55 L759.04,165.97 L779.93,217.62 L800.40,257.51 L847.98,286.62 L797.71,320.72 L798.62,362.74 L741.39,421.89 L704.44,481.72 L642.77,543.52 L574.32,539.04 L509.35,600.83 L547.93,627.31 L554.65,672.68 L587.77,702.58 L599.47,753.19 L469.74,753.04 L430.48,792.37 L387.27,777.46 L369.69,735.09 L324.15,690.19 L215.53,701.28 L119.76,702.38 L36.73,710.64 L58.95,642.16 L143.98,611.71 L139.10,584.56 L110.90,575.02 L109.27,523.10 L52.92,497.18 L29.18,461.57 L0.00,430.57 L98.78,460.67 L157.75,451.84 L192.99,459.36 L204.92,446.44 L245.98,451.62 L322.59,427.11 L324.66,376.94 L357.52,343.57 L401.41,343.68 L407.85,327.18 L452.90,319.50 L474.70,324.99 L497.75,308.41 L494.50,273.01 L519.53,237.43 L557.05,222.51 L533.88,183.51 L589.96,185.35 L606.17,164.13 L603.71,141.48 L633.07,116.71 L626.33,87.39 L612.39,62.41 L646.81,36.73 L710.11,24.35 L777.76,17.50 L807.73,6.61 L842.04,0 Z"/>
    </clipPath>
    <!-- National literacy mix: ~59% / ~41% shown as left/right share on map (metaphor, not provincial data) -->
    <linearGradient id="pkLiterGlow" x1="0" y1="0" x2="1000" y2="0" gradientUnits="userSpaceOnUse">
      <stop offset="0" stop-color="#059669"/>
      <stop offset="0.59" stop-color="#10b981"/>
      <stop offset="0.59" stop-color="#4f46e5"/>
      <stop offset="1" stop-color="#818cf8"/>
    </linearGradient>
    <filter id="pkOutlineGlow" x="-5%" y="-5%" width="110%" height="110%">
      <feGaussianBlur stdDeviation="1.2" result="b"/>
      <feMerge>
        <feMergeNode in="b"/>
        <feMergeNode in="SourceGraphic"/>
      </feMerge>
    </filter>
  </defs>
  <g clip-path="url(#pkOutline)">
    <rect x="-20" y="-20" width="1040" height="840" fill="url(#pkLiterGlow)"/>
  </g>
  <path filter="url(#pkOutlineGlow)" fill="none" stroke="rgba(248,250,252,0.65)" stroke-width="2.25" stroke-linejoin="round"
    d="M842.04,0 L885.60,27.48 L903.05,72.78 L1000.00,96.62 L943.07,146.17 L877.36,154.93 L787.94,140.55 L759.04,165.97 L779.93,217.62 L800.40,257.51 L847.98,286.62 L797.71,320.72 L798.62,362.74 L741.39,421.89 L704.44,481.72 L642.77,543.52 L574.32,539.04 L509.35,600.83 L547.93,627.31 L554.65,672.68 L587.77,702.58 L599.47,753.19 L469.74,753.04 L430.48,792.37 L387.27,777.46 L369.69,735.09 L324.15,690.19 L215.53,701.28 L119.76,702.38 L36.73,710.64 L58.95,642.16 L143.98,611.71 L139.10,584.56 L110.90,575.02 L109.27,523.10 L52.92,497.18 L29.18,461.57 L0.00,430.57 L98.78,460.67 L157.75,451.84 L192.99,459.36 L204.92,446.44 L245.98,451.62 L322.59,427.11 L324.66,376.94 L357.52,343.57 L401.41,343.68 L407.85,327.18 L452.90,319.50 L474.70,324.99 L497.75,308.41 L494.50,273.01 L519.53,237.43 L557.05,222.51 L533.88,183.51 L589.96,185.35 L606.17,164.13 L603.71,141.48 L633.07,116.71 L626.33,87.39 L612.39,62.41 L646.81,36.73 L710.11,24.35 L777.76,17.50 L807.73,6.61 L842.04,0 Z"/>
  <!-- 59% / 41% guides on map -->
  <line x1="590" y1="0" x2="590" y2="800" stroke="rgba(248,250,252,0.35)" stroke-width="1.5" stroke-dasharray="8 6"/>
</svg>
